<svg width="400" height="300" viewBox="0 0 400 300" fill="none" xmlns="http://www.w3.org/2000/svg">
  <rect width="400" height="300" fill="url(#gradient3)"/>
  <defs>
    <linearGradient id="gradient3" x1="0%" y1="0%" x2="100%" y2="100%">
      <stop offset="0%" style="stop-color:#4facfe;stop-opacity:1" />
      <stop offset="100%" style="stop-color:#00f2fe;stop-opacity:1" />
    </linearGradient>
  </defs>
  <rect x="50" y="50" width="300" height="200" rx="10" fill="white" fill-opacity="0.1"/>
  <circle cx="120" cy="120" r="25" fill="white" fill-opacity="0.3"/>
  <path d="M105 105 L135 105 M120 90 L120 150 M105 135 L135 135" stroke="white" stroke-width="3" stroke-opacity="0.4"/>
  <rect x="170" y="100" width="120" height="40" rx="5" fill="white" fill-opacity="0.2"/>
  <rect x="180" y="110" width="30" height="4" rx="2" fill="white" fill-opacity="0.4"/>
  <rect x="180" y="120" width="50" height="4" rx="2" fill="white" fill-opacity="0.3"/>
  <rect x="180" y="130" width="40" height="4" rx="2" fill="white" fill-opacity="0.2"/>
  <rect x="70" y="170" width="80" height="20" rx="10" fill="white" fill-opacity="0.3"/>
  <rect x="170" y="170" width="80" height="20" rx="10" fill="white" fill-opacity="0.3"/>
  <rect x="270" y="170" width="60" height="20" rx="10" fill="white" fill-opacity="0.3"/>
  <text x="200" y="220" text-anchor="middle" fill="white" font-family="Arial, sans-serif" font-size="16" font-weight="bold">Weather Dashboard</text>
</svg>